<?xml version="1.0" standalone="no"?>
<!DOCTYPE svg PUBLIC "-//W3C//DTD SVG 20010904//EN"
 "http://www.w3.org/TR/2001/REC-SVG-20010904/DTD/svg10.dtd">
<svg version="1.0" xmlns="http://www.w3.org/2000/svg"
 width="295.000000pt" height="233.000000pt" viewBox="0 0 295.000000 233.000000"
 preserveAspectRatio="xMidYMid meet">

<g transform="translate(0.000000,233.000000) scale(0.100000,-0.100000)"
fill="#000000" stroke="none">
<path d="M1325 2274 c-124 -25 -122 -24 -122 -49 0 -26 12 -34 20 -12 4 9 6 9
6 -1 1 -7 -6 -15 -14 -18 -8 -4 -12 -11 -9 -16 4 -6 0 -6 -13 0 -20 11 -53 -1
-53 -19 0 -6 6 -7 13 -2 6 4 23 8 37 9 14 1 59 10 100 19 107 25 257 21 390
-10 57 -13 106 -22 108 -20 3 2 11 -3 20 -11 12 -13 16 -13 23 -2 7 10 9 8 9
-6 0 -15 3 -16 14 -7 11 9 16 9 22 0 5 -8 3 -10 -7 -5 -8 4 -5 0 6 -9 23 -19
31 -6 15 27 -11 22 -10 22 4 4 9 -11 16 -27 16 -37 0 -9 6 -19 14 -22 17 -7
40 18 31 33 -9 15 -27 1 -21 -17 3 -8 1 -11 -4 -8 -6 3 -10 11 -10 17 0 12 30
37 45 38 6 0 3 -5 -5 -11 -12 -8 -9 -9 9 -4 l24 7 -21 -30 c-21 -28 -21 -30
-3 -46 26 -23 45 -21 29 4 -9 14 -14 16 -20 7 -6 -9 -8 -9 -8 0 0 6 5 15 10
18 6 4 8 11 5 16 -9 13 6 10 35 -7 l25 -15 -29 6 c-26 5 -28 4 -17 -9 7 -9 17
-13 23 -10 5 3 6 -5 3 -19 -6 -21 -1 -28 34 -48 22 -12 39 -24 37 -27 -3 -2 7
-14 22 -27 28 -24 52 -24 31 1 -6 7 -15 12 -19 9 -5 -3 -12 0 -16 6 -4 8 -3 9
4 5 7 -4 12 -1 12 9 0 9 -4 14 -8 11 -5 -3 -9 1 -9 9 0 8 4 15 9 15 4 0 8 -4
8 -10 0 -5 4 -10 10 -10 5 0 6 7 3 17 -5 12 -3 14 8 9 8 -4 5 0 -5 8 -11 9
-24 16 -29 16 -4 0 -5 6 -1 13 5 8 2 7 -9 -2 -15 -12 -17 -12 -11 2 4 12 -9
24 -48 47 -118 69 -168 93 -168 81 0 -6 -17 1 -37 15 -20 13 -42 23 -49 20 -7
-3 -15 0 -17 7 -3 9 -9 9 -25 0 -16 -10 -23 -9 -33 3 -7 8 -18 13 -25 10 -7
-3 -16 -1 -19 4 -3 5 -20 7 -38 4 -21 -4 -28 -3 -19 4 10 6 0 11 -34 16 -49 6
-225 6 -259 0z m149 -53 c-5 -5 -33 30 -34 43 0 4 9 -2 19 -15 11 -13 17 -26
15 -28z m26 34 c-7 -9 -15 -13 -19 -10 -3 3 1 10 9 15 21 14 24 12 10 -5z
m-245 -15 c-3 -5 -2 -10 4 -10 5 0 11 3 14 8 2 4 2 1 0 -7 -2 -8 1 -18 7 -21
8 -5 7 -9 -4 -13 -9 -4 -17 1 -21 14 -4 10 -14 19 -23 20 -14 0 -13 2 3 9 27
11 27 11 20 0z m265 -5 c-7 -9 -15 -13 -19 -10 -3 3 1 10 9 15 21 14 24 12 10
-5z m215 -22 c9 4 15 1 15 -9 0 -10 -6 -14 -15 -10 -8 3 -15 1 -15 -3 0 -5 6
-12 13 -14 9 -4 9 -6 -1 -6 -7 -1 -17 9 -22 22 -7 18 -9 18 -9 4 -1 -10 -6
-15 -12 -11 -8 4 -8 9 0 17 18 18 12 31 -6 16 -17 -13 -17 -12 -4 4 14 18 16
18 27 2 8 -10 20 -15 29 -12z m-188 1 c-3 -3 -12 -4 -19 -1 -8 3 -5 6 6 6 11
1 17 -2 13 -5z m293 -29 c0 -17 -17 -28 -30 -20 -7 4 -7 13 0 26 12 21 30 17
30 -6z m-66 -3 c3 -5 -1 -9 -9 -9 -8 0 -12 4 -9 9 3 4 7 8 9 8 2 0 6 -4 9 -8z
m156 -25 c11 -5 9 -6 -4 -4 -11 1 -21 9 -23 17 -3 10 -2 11 4 4 4 -6 15 -14
23 -17z m130 -112 c0 -11 5 -12 25 -5 15 6 26 6 30 0 4 -6 -1 -13 -9 -16 -9
-3 -13 -11 -10 -18 3 -6 0 -4 -8 5 -13 16 -19 19 -36 19 -5 0 -9 7 -9 15 0 8
4 15 9 15 4 0 8 -7 8 -15z"/>
<path d="M1816 2185 c-3 -8 -1 -15 4 -15 6 0 10 7 10 15 0 8 -2 15 -4 15 -2 0
-6 -7 -10 -15z"/>
<path d="M1144 2231 c3 -5 -1 -14 -10 -21 -8 -7 -13 -19 -10 -27 3 -8 2 -11
-4 -8 -5 3 -8 -4 -7 -15 1 -18 4 -17 25 10 19 24 29 29 45 24 19 -6 20 -5 8
10 -11 13 -11 16 0 17 8 0 5 4 -6 9 -27 12 -47 12 -41 1z m12 -29 c-17 -16
-18 -16 -5 5 7 12 15 20 18 17 3 -2 -3 -12 -13 -22z"/>
<path d="M1104 2222 c-11 -7 -16 -42 -6 -42 7 0 31 33 32 43 0 9 -12 9 -26 -1z"/>
<path d="M1060 2191 c0 -12 -5 -21 -10 -21 -6 0 -10 -8 -8 -17 2 -11 -8 -22
-25 -31 -15 -7 -25 -17 -22 -23 4 -5 19 -2 36 6 16 9 27 20 24 25 -4 6 -2 10
4 10 5 0 11 -5 13 -11 3 -8 10 -5 21 6 17 17 17 18 0 37 -10 11 -17 23 -15 26
2 4 -1 8 -7 10 -6 2 -11 -6 -11 -17z"/>
<path d="M1003 2181 c-20 -10 -31 -21 -28 -30 4 -10 2 -11 -8 -3 -18 15 -37 0
-33 -25 3 -13 -1 -24 -10 -27 -11 -4 -12 -2 -4 14 9 16 7 18 -12 15 -32 -7
-67 -43 -50 -54 10 -6 10 -10 -3 -21 -13 -11 -18 -11 -28 0 -10 10 -9 12 6 7
9 -4 17 -2 17 3 0 6 -5 10 -11 10 -5 0 -7 5 -3 11 10 17 -137 -105 -168 -139
-30 -33 -35 -51 -16 -70 9 -9 9 -12 -1 -12 -7 0 -9 -4 -6 -10 3 -5 1 -10 -5
-10 -7 0 -9 8 -5 19 3 11 1 22 -4 25 -11 7 -43 -33 -36 -44 3 -4 -3 -7 -13 -7
-47 0 -63 -5 -94 -30 -18 -15 -26 -19 -18 -9 14 18 14 19 -8 7 -12 -7 -20 -16
-17 -21 3 -6 0 -7 -8 -5 -15 6 -70 -32 -63 -44 3 -4 0 -13 -6 -21 -8 -12 -9
-12 -4 3 3 9 2 17 -3 17 -14 0 -33 -28 -27 -39 4 -5 2 -12 -3 -16 -6 -3 -8
-12 -5 -19 3 -8 1 -17 -5 -21 -7 -4 -8 1 -4 12 6 15 4 16 -9 5 -13 -10 -18
-10 -24 -1 -4 7 -3 9 3 6 6 -4 18 2 27 12 34 38 -2 29 -39 -9 -38 -39 -38 -40
-19 -55 10 -8 14 -15 7 -15 -7 0 -13 -7 -13 -15 0 -13 -2 -14 -14 -3 -12 11
-12 14 2 19 12 4 13 7 3 13 -14 9 -43 -12 -35 -25 3 -5 1 -9 -4 -9 -20 0 -64
-83 -64 -119 1 -65 8 -100 25 -119 9 -10 17 -23 17 -28 0 -5 25 -36 56 -69 31
-33 51 -53 45 -44 -9 13 -7 19 6 30 16 12 17 12 6 -2 -16 -20 -5 -33 15 -16
13 11 14 9 1 -11 -13 -21 -12 -24 6 -35 26 -15 88 -17 98 -3 5 7 7 5 4 -4 -2
-8 -14 -14 -26 -13 -26 3 -27 -4 -3 -25 9 -10 13 -14 8 -9 -20 15 -26 6 -26
-39 0 -25 4 -43 9 -40 5 3 8 -5 7 -18 0 -13 -4 -22 -8 -19 -5 2 -8 -5 -8 -17
0 -12 4 -18 10 -15 6 4 7 -5 4 -23 -3 -17 -1 -32 5 -36 7 -5 9 -1 5 11 -5 15
-4 15 5 3 6 -9 7 -18 1 -24 -14 -14 -13 -29 1 -20 8 4 9 -1 4 -16 -4 -14 -3
-20 3 -17 5 4 8 -5 6 -21 -5 -36 25 -104 43 -98 7 3 13 1 13 -3 0 -5 -6 -11
-12 -14 -7 -2 -9 -8 -5 -13 9 -10 39 24 32 36 -2 4 2 7 9 7 7 0 13 -6 13 -13
0 -7 -4 -11 -9 -8 -4 3 -8 1 -8 -5 0 -17 14 -20 27 -6 10 11 8 20 -12 44 -16
18 -21 32 -15 36 5 3 10 0 11 -7 0 -7 4 -3 9 10 5 12 6 30 3 39 -4 10 -2 14 4
10 5 -3 9 3 8 15 -1 12 5 34 12 50 8 15 13 48 11 75 -3 43 -4 45 -19 31 -14
-15 -16 -14 -27 2 -10 16 -9 18 8 15 11 -2 22 0 25 6 4 5 -2 9 -12 9 -13 0
-15 2 -5 9 10 6 9 15 -5 41 -10 19 -24 40 -30 48 -7 7 -13 19 -13 25 0 7 4 6
10 -3 7 -10 10 17 8 88 -1 63 -6 102 -13 102 -5 0 -3 5 5 10 11 7 16 32 17 97
4 122 7 153 16 153 5 0 5 5 2 10 -3 6 -1 10 4 10 6 0 11 7 11 15 0 9 -6 12
-17 9 -10 -4 -4 3 12 13 17 11 36 31 44 45 7 14 24 32 37 39 13 7 24 19 24 26
0 8 5 11 10 8 6 -4 41 1 78 10 40 10 101 17 150 16 60 -1 89 3 105 14 13 9 16
15 8 15 -8 0 -11 3 -8 6 8 8 37 -14 37 -28 0 -5 -9 -6 -20 -3 -12 4 -20 2 -20
-5 0 -8 12 -11 34 -8 19 2 32 0 30 -4 -3 -4 1 -9 8 -9 7 -1 25 -3 40 -5 15 -1
27 0 27 4 -3 19 2 23 16 12 9 -8 15 -8 15 -2 0 6 -5 12 -12 14 -9 3 -9 6 0 12
7 4 12 3 12 -3 0 -6 6 -8 14 -5 8 3 17 0 21 -6 4 -7 10 -8 14 -3 3 5 17 6 31
2 22 -6 23 -7 4 -8 -18 -1 -21 -7 -20 -36 0 -20 6 -35 13 -35 6 0 15 -5 19
-12 4 -7 3 -8 -5 -4 -6 4 -19 2 -27 -5 -12 -10 -13 -9 -8 7 5 16 4 16 -5 4 -8
-11 -7 -18 6 -27 9 -7 14 -13 10 -13 -4 0 -2 -10 5 -22 7 -13 13 -26 14 -30 1
-5 3 -11 4 -15 6 -20 7 -35 8 -130 2 -75 6 -105 17 -117 18 -17 20 -30 4 -20
-18 11 0 -79 19 -95 16 -13 16 -13 0 -8 -15 5 -18 0 -18 -31 0 -20 -4 -52 -9
-70 -10 -34 -5 -66 9 -57 4 2 5 -7 2 -21 -3 -18 -7 -22 -13 -13 -4 7 -6 16 -3
20 2 4 0 10 -6 14 -9 5 -12 -1 -9 -22 0 -3 -6 -10 -15 -15 -18 -10 -22 -43 -6
-53 12 -8 13 -45 1 -45 -5 0 -7 10 -4 23 5 17 3 19 -7 11 -8 -8 -9 -20 -4 -35
4 -13 7 -28 6 -33 -4 -13 29 -108 36 -102 3 3 12 0 20 -7 13 -10 15 -9 9 6 -4
11 -3 16 3 12 17 -10 11 7 -7 22 -10 8 -12 11 -4 7 11 -6 12 0 5 32 -12 56 -8
154 6 154 4 0 7 6 8 13 0 6 2 21 4 32 2 11 -2 20 -9 20 -6 0 -14 3 -17 8 -3 4
-3 5 1 2 3 -3 13 1 21 8 13 9 14 9 8 0 -4 -7 -3 -13 3 -13 6 0 13 16 17 35 6
33 7 34 30 18 19 -12 24 -13 24 -2 0 9 3 10 8 4 15 -21 52 -16 77 11 26 28 34
51 13 38 -7 -5 -8 -3 -3 5 5 9 10 10 18 2 7 -7 14 -7 24 0 10 9 13 4 13 -29 0
-36 -3 -40 -30 -45 -22 -5 -30 -12 -30 -27 0 -16 5 -21 23 -18 13 2 22 10 21
19 -2 20 21 19 39 -1 10 -12 9 -12 -4 -2 -14 10 -18 10 -22 -2 -3 -8 1 -20 9
-26 8 -7 14 -18 14 -25 0 -7 6 -17 13 -23 13 -11 15 -67 3 -80 -4 -4 -6 0 -4
8 2 9 -6 16 -21 18 -15 3 -21 0 -16 -8 4 -7 0 -10 -11 -8 -13 2 -20 -4 -22
-17 -2 -16 3 -21 23 -23 14 -1 25 3 25 9 0 6 -6 9 -14 6 -8 -3 -17 0 -20 8 -5
15 18 11 41 -7 7 -6 19 -5 32 1 26 14 31 14 31 -3 0 -7 27 -42 59 -78 48 -52
66 -65 90 -66 22 0 34 6 42 21 7 12 8 19 4 15 -4 -4 -15 2 -24 14 -11 12 -32
22 -55 24 -34 3 -37 2 -24 -14 12 -15 11 -16 -4 -3 -23 17 -6 56 20 47 15 -5
15 -5 1 6 -25 20 -41 56 -27 60 6 2 8 10 4 16 -14 22 -27 1 -20 -31 3 -18 5
-30 2 -27 -26 34 -27 37 -12 58 14 21 16 21 39 6 25 -17 61 -12 50 6 -3 5 -1
10 5 10 6 0 8 4 5 10 -8 12 -65 13 -65 1 0 -4 -12 -8 -26 -7 -23 1 -27 -4 -30
-31 -2 -18 1 -35 6 -38 6 -3 10 -12 10 -18 0 -7 -6 -4 -14 5 -7 10 -17 14 -21
10 -5 -4 -5 -1 -1 6 4 6 2 12 -4 12 -6 0 -8 4 -5 10 3 6 -2 8 -12 5 -10 -3 -5
1 11 8 22 11 25 15 12 20 -9 4 -16 12 -16 19 0 9 3 9 10 -2 18 -29 24 2 6 33
-11 20 -14 33 -7 35 6 2 8 8 5 14 -4 6 -1 8 7 6 8 -3 13 -11 11 -18 -2 -9 7
-11 28 -8 17 3 33 1 36 -4 8 -13 41 -9 54 7 18 22 4 32 -55 39 -37 5 -44 4
-27 -4 27 -11 27 -16 5 -24 -10 -4 -15 -4 -11 -1 9 9 -29 45 -48 45 -8 0 -12
-4 -9 -10 3 -5 2 -10 -4 -10 -6 0 -8 -6 -5 -14 3 -8 0 -17 -5 -21 -6 -3 -9
-10 -6 -15 3 -4 -1 -10 -9 -13 -10 -4 -12 0 -9 14 3 10 8 19 12 19 11 0 15
129 5 163 -3 9 -1 17 4 17 10 0 8 33 -3 72 -7 21 -6 22 7 5 12 -17 15 -14 36
28 12 26 17 43 11 39 -7 -4 -9 -3 -5 4 3 6 -3 17 -15 26 -12 8 -18 19 -14 26
5 8 11 4 19 -11 24 -48 34 -33 34 48 0 89 7 171 16 180 3 4 6 17 6 30 0 38 31
27 89 -31 30 -30 62 -57 73 -59 23 -7 37 21 17 34 -11 7 -11 9 -1 9 8 0 16 -9
19 -20 5 -18 23 -29 23 -14 0 10 -34 50 -44 52 -5 0 -14 11 -20 23 -12 25 -36
37 -36 19 0 -6 4 -9 9 -5 22 13 22 -19 0 -39 -22 -20 -22 -20 -6 0 20 24 23
41 4 26 -10 -8 -13 -6 -14 10 -1 11 -10 27 -20 35 -10 8 -11 11 -3 7 13 -7 13
-6 1 10 -8 9 -20 15 -27 12 -7 -3 -16 0 -20 6 -5 7 -2 8 7 3 12 -7 12 -6 1 7
-14 17 -42 14 -42 -5 0 -6 -3 -7 -6 -4 -4 4 -1 14 6 22 12 14 10 16 -16 13
-34 -4 -51 -22 -57 -64 -2 -16 -7 -37 -12 -47 -4 -10 -2 -24 6 -34 10 -12 10
-15 2 -9 -8 4 -13 1 -13 -9 0 -9 4 -14 9 -10 5 3 13 0 17 -6 4 -8 3 -9 -4 -5
-9 5 -40 -33 -34 -41 8 -12 -1 -40 -13 -40 -8 0 -12 4 -9 9 3 4 0 8 -5 8 -6 0
-11 6 -11 13 0 17 -62 77 -80 77 -7 0 -11 3 -7 6 7 7 -54 60 -65 56 -4 -1 -8
2 -8 6 0 4 -13 16 -30 25 -25 15 -29 16 -24 3 3 -9 9 -14 13 -11 4 2 8 -2 8
-9 0 -20 -25 -8 -32 15 -4 11 -11 16 -18 13 -7 -4 -9 -4 -5 1 12 13 -12 35
-29 28 -12 -5 -14 -3 -8 8 4 8 5 11 0 7 -4 -4 -17 -2 -29 4 -11 6 -36 11 -56
10 -26 -1 -31 1 -20 8 8 5 10 10 4 10 -6 0 -26 -13 -44 -30 -39 -34 -45 -36
-54 -14 -5 14 -4 15 7 5 11 -9 17 -7 28 6 8 9 9 14 2 10 -6 -4 -13 -3 -15 2
-5 14 -48 24 -48 11 0 -6 5 -8 12 -4 7 5 8 3 3 -5 -5 -9 -13 -7 -29 8 -25 24
-106 30 -106 9 0 -8 -3 -9 -8 -3 -11 15 -142 14 -142 -1 0 -7 8 -15 18 -17 15
-4 15 -5 -1 -6 -11 -1 -21 7 -24 19 -3 11 -12 20 -20 20 -8 0 -12 -4 -8 -9 3
-5 0 -13 -6 -17 -8 -4 -9 -3 -5 4 4 7 1 12 -9 12 -10 0 -13 -5 -9 -12 4 -6 3
-8 -4 -4 -5 3 -13 0 -15 -6 -4 -10 -6 -10 -6 0 -1 7 -6 10 -13 6 -7 -4 -8 -3
-4 4 4 7 13 12 20 12 18 0 48 35 39 45 -5 4 -3 5 4 2 6 -4 22 5 35 20 28 34
153 133 190 152 15 8 25 18 22 23 -3 4 2 8 10 8 9 0 15 5 14 12 -2 7 7 17 20
23 25 11 28 25 10 44 -11 10 -10 11 3 6 10 -4 20 -2 23 4 11 18 -8 19 -41 2z
m12 -39 c-3 -3 -11 0 -18 7 -9 10 -8 11 6 5 10 -3 15 -9 12 -12z m-118 -40
c-19 -20 -13 -34 9 -25 8 3 14 1 14 -4 0 -20 -13 -22 -35 -5 l-22 16 21 18
c27 23 33 23 13 0z m53 -22 c0 -5 -2 -10 -4 -10 -3 0 -8 5 -11 10 -3 6 -1 10
4 10 6 0 11 -4 11 -10z m-60 -35 c0 -11 -45 -45 -59 -45 -12 1 -11 3 4 12 11
7 26 18 33 25 14 13 22 17 22 8z m-70 -19 c0 -3 -4 -8 -10 -11 -5 -3 -10 -1
-10 4 0 6 5 11 10 11 6 0 10 -2 10 -4z m-39 -39 c-10 -9 -11 -8 -5 6 3 10 9
15 12 12 3 -3 0 -11 -7 -18z m46 -3 c-3 -3 -12 -4 -19 -1 -8 3 -5 6 6 6 11 1
17 -2 13 -5z m-97 -24 c0 -5 -7 -6 -17 -3 -11 4 -14 3 -9 -5 4 -7 2 -12 -3
-12 -6 0 -11 -4 -11 -10 0 -5 8 -6 18 -3 15 6 15 5 3 -11 -9 -11 -17 -13 -21
-6 -4 6 -14 8 -23 4 -10 -4 -6 5 11 25 27 30 52 40 52 21z m50 -4 c0 -2 -7 -7
-16 -10 -8 -3 -12 -2 -9 4 6 10 25 14 25 6z m-99 -99 c-10 -9 -11 -8 -5 6 3
10 9 15 12 12 3 -3 0 -11 -7 -18z m-45 -38 c3 -6 1 -16 -6 -22 -10 -9 -11 -9
-5 2 4 8 2 17 -6 22 -9 6 -10 9 -2 9 6 0 15 -5 19 -11z m-84 -6 c-6 -2 -10 -9
-6 -14 3 -5 0 -9 -5 -9 -6 0 -11 7 -11 15 0 8 8 15 18 14 10 0 12 -3 4 -6z
m41 -19 c-14 -11 -15 -14 -3 -12 9 2 16 -1 16 -7 0 -5 -6 -9 -13 -7 -15 3 -17
-14 -3 -21 6 -3 5 -4 -2 -3 -7 1 -13 18 -14 38 -1 30 1 35 17 31 19 -5 19 -6
2 -19z m-33 -24 c0 -5 -4 -10 -10 -10 -5 0 -10 5 -10 10 0 6 5 10 10 10 6 0
10 -4 10 -10z m1090 -15 c-14 -17 -30 -20 -30 -6 0 5 8 12 18 14 9 3 19 5 21
6 2 0 -2 -6 -9 -14z m94 -14 c3 -5 -1 -11 -9 -14 -10 -4 -12 -1 -8 10 5 12 1
14 -18 9 -13 -3 -18 -3 -11 0 6 3 9 10 6 16 -4 6 2 6 14 -1 12 -6 23 -15 26
-20z m-484 -1 c0 -5 -5 -10 -11 -10 -5 0 -7 5 -4 10 3 6 8 10 11 10 2 0 4 -4
4 -10z m-826 -6 c9 -3 16 -11 16 -16 0 -6 -6 -5 -15 2 -8 7 -22 10 -30 6 -9
-3 -13 -2 -10 4 7 12 17 12 39 4z m865 -20 c-9 -11 -7 -14 12 -15 13 0 18 -3
11 -6 -7 -3 -20 -2 -28 1 -12 5 -14 10 -5 20 6 7 7 17 3 21 -4 5 -1 5 6 1 10
-6 10 -11 1 -22z m-753 -31 c-3 -4 -6 0 -7 8 0 9 -3 8 -7 -3 -7 -17 -8 -16
-19 2 -11 16 -10 18 2 14 11 -5 14 -1 9 12 -5 14 -2 13 11 -4 9 -13 14 -26 11
-29z m1108 20 c3 -13 -1 -19 -12 -18 -10 0 -17 5 -17 10 0 6 5 9 12 7 8 -2 10
3 6 15 -3 10 -3 15 1 12 4 -4 8 -15 10 -26z m-1146 -38 c-3 -3 -9 2 -12 12 -6
14 -5 15 5 6 7 -7 10 -15 7 -18z m932 4 c0 -14 -17 -10 -23 5 -4 10 -1 13 9 9
7 -3 14 -9 14 -14z m390 -11 c0 -18 -2 -20 -9 -8 -6 8 -7 18 -5 22 9 14 14 9
14 -14z m-473 6 c-3 -3 -12 -4 -19 -1 -8 3 -5 6 6 6 11 1 17 -2 13 -5z m-110
-26 c-3 -8 -6 -5 -6 6 -1 11 2 17 5 13 3 -3 4 -12 1 -19z m101 5 c-10 -2 -28
-2 -40 0 -13 2 -5 4 17 4 22 1 32 -1 23 -4z m126 -8 c-4 -8 -8 -15 -10 -15 -2
0 -4 7 -4 15 0 8 4 15 10 15 5 0 7 -7 4 -15z m-14 -40 c0 -5 -5 -3 -10 5 -5 8
-10 20 -10 25 0 6 5 3 10 -5 5 -8 10 -19 10 -25z m180 25 c-8 -5 -11 -10 -6
-10 6 0 1 -7 -10 -16 -17 -14 -17 -15 -1 -10 12 4 17 2 14 -6 -2 -7 -12 -12
-22 -10 -12 2 -15 -1 -10 -10 6 -10 5 -10 -5 -1 -11 10 -11 15 0 28 7 8 9 15
4 15 -13 1 28 30 40 30 6 0 4 -5 -4 -10z m-303 -32 c-3 -7 -5 -2 -5 12 0 14 2
19 5 13 2 -7 2 -19 0 -25z m78 22 c3 -5 1 -10 -4 -10 -6 0 -11 5 -11 10 0 6 2
10 4 10 3 0 8 -4 11 -10z m109 -19 c-2 -3 -12 3 -22 13 -16 17 -16 18 5 5 12
-7 20 -15 17 -18z m-242 12 c-10 -4 -10 -8 0 -21 12 -15 11 -16 -4 -3 -11 8
-18 9 -18 3 0 -6 7 -15 16 -20 11 -6 13 -11 5 -16 -6 -4 -11 -1 -12 6 0 7 -4
4 -9 -7 -6 -16 -8 -13 -8 15 1 34 12 50 33 49 6 0 4 -3 -3 -6z m213 -13 c3 -5
1 -10 -4 -10 -6 0 -11 5 -11 10 0 6 2 10 4 10 3 0 8 -4 11 -10z m-17 -23 c8
-10 6 -13 -7 -13 -11 0 -17 6 -14 13 3 7 6 13 8 13 1 0 7 -6 13 -13z m-193
-47 c3 -5 -1 -10 -10 -10 -9 0 -13 5 -10 10 3 6 8 10 10 10 2 0 7 -4 10 -10z
m45 -5 c0 -8 -4 -15 -10 -15 -5 0 -10 7 -10 15 0 8 5 15 10 15 6 0 10 -7 10
-15z m147 -11 c-3 -3 -12 -4 -19 -1 -8 3 -5 6 6 6 11 1 17 -2 13 -5z m53 2 c0
-11 -19 -15 -25 -6 -3 5 1 10 9 10 9 0 16 -2 16 -4z m-244 -18 c5 4 5 3 1 -2
-12 -15 -34 -15 -34 0 0 9 4 11 12 4 7 -5 16 -6 21 -2z m-1129 -30 c-3 -8 -6
-5 -6 6 -1 11 2 17 5 13 3 -3 4 -12 1 -19z m328 12 c-3 -5 -14 -10 -23 -9 -14
0 -13 2 3 9 27 11 27 11 20 0z m995 6 c0 -2 -7 -7 -16 -10 -8 -3 -12 -2 -9 4
6 10 25 14 25 6z m155 -5 c3 -5 1 -12 -5 -16 -5 -3 -10 1 -10 9 0 18 6 21 15
7z m-353 -29 c-7 -2 -10 -8 -6 -13 6 -10 -9 -13 -19 -3 -11 12 5 33 21 27 10
-4 12 -8 4 -11z m-1119 -24 c-4 -19 -3 -20 6 -8 9 13 11 13 11 -2 0 -27 -16
-29 -28 -3 -8 18 -8 25 1 29 7 2 13 5 14 5 0 1 -1 -9 -4 -21z m1302 2 c3 -5 1
-10 -4 -10 -6 0 -11 5 -11 10 0 6 2 10 4 10 3 0 8 -4 11 -10z m-189 -26 c-11
-8 -15 -14 -9 -14 6 0 13 -7 17 -15 4 -12 2 -13 -14 -3 -24 15 -22 44 4 45 21
2 21 2 2 -13z m244 -9 c0 -12 -19 -12 -23 0 -4 9 -1 12 9 8 7 -3 14 -7 14 -8z
m-1270 -2 c0 -9 -52 -35 -58 -29 -2 3 9 11 25 20 33 18 33 18 33 9z m1070 -3
c0 -5 -2 -10 -4 -10 -3 0 -8 5 -11 10 -3 6 -1 10 4 10 6 0 11 -4 11 -10z m231
-41 c-6 -11 -11 -24 -11 -31 0 -10 2 -10 9 0 6 10 10 10 21 -2 10 -13 9 -17
-4 -22 -9 -3 -14 -9 -12 -13 3 -4 0 -13 -5 -21 -7 -11 -8 -8 -5 12 3 16 -1 32
-10 38 -12 10 -12 15 1 33 17 24 20 41 5 32 -6 -4 -7 1 -3 11 5 15 7 15 16 -2
7 -12 6 -23 -2 -35z m39 41 c0 -5 -5 -10 -11 -10 -5 0 -7 5 -4 10 3 6 8 10 11
10 2 0 4 -4 4 -10z m-1150 -26 c0 -2 -7 -4 -15 -4 -8 0 -15 4 -15 10 0 5 7 7
15 4 8 -4 15 -8 15 -10z m-190 -14 c0 -5 -2 -10 -4 -10 -3 0 -8 5 -11 10 -3 6
-1 10 4 10 6 0 11 -4 11 -10z m1100 0 c0 -5 -4 -10 -10 -10 -5 0 -10 5 -10 10
0 6 5 10 10 10 6 0 10 -4 10 -10z m-987 -20 c3 -11 1 -20 -4 -20 -5 0 -9 9 -9
20 0 11 2 20 4 20 2 0 6 -9 9 -20z m-43 -26 c0 -8 3 -13 8 -11 4 1 8 -1 10 -5
1 -5 0 -8 -3 -8 -3 0 -9 0 -14 0 -5 0 -11 11 -13 25 -3 13 -1 22 3 19 5 -3 9
-12 9 -20z m962 17 c6 9 7 4 3 -16 -3 -16 -2 -24 1 -17 8 17 24 15 24 -3 0
-25 -30 -17 -40 11 -6 14 -10 28 -9 32 0 4 3 1 6 -7 5 -11 7 -11 15 0z m-827
-41 c3 -5 1 -10 -4 -10 -6 0 -11 5 -11 10 0 6 2 10 4 10 3 0 8 -4 11 -10z
m-212 -17 c-3 -7 -6 -13 -8 -13 -2 0 -5 6 -8 13 -3 8 1 14 8 14 7 0 11 -6 8
-14z m1154 11 c-3 -3 -12 -4 -19 -1 -8 3 -5 6 6 6 11 1 17 -2 13 -5z m93 -10
c0 -2 -11 -4 -25 -4 -14 0 -25 4 -25 9 0 4 11 6 25 3 14 -2 25 -6 25 -8z
m-167 -29 c-3 -9 -8 -14 -10 -11 -3 3 -2 9 2 15 9 16 15 13 8 -4z m247 -4 c0
-11 -9 -21 -21 -24 -14 -4 -18 -10 -13 -19 4 -7 3 -9 -1 -5 -17 15 -13 37 6
37 10 0 19 7 19 15 0 8 2 15 5 15 3 0 5 -8 5 -19z m-1110 5 c0 -3 -4 -8 -10
-11 -5 -3 -10 -1 -10 4 0 6 5 11 10 11 6 0 10 -2 10 -4z m1087 -2 c-3 -3 -12
-4 -19 -1 -8 3 -5 6 6 6 11 1 17 -2 13 -5z m-1120 -46 c-3 -7 -5 -2 -5 12 0
14 2 19 5 13 2 -7 2 -19 0 -25z m998 2 c-10 -11 -21 -18 -23 -15 -3 3 3 12 14
20 27 20 30 18 9 -5z m132 -15 c-4 -8 -12 -15 -19 -14 -10 0 -10 2 0 6 6 2 12
12 12 21 0 8 3 13 6 9 4 -3 4 -13 1 -22z m-286 -18 c-10 -9 -11 -8 -5 6 3 10
9 15 12 12 3 -3 0 -11 -7 -18z m-808 -91 c26 -56 40 -143 26 -152 -5 -3 -9
-12 -9 -20 0 -9 5 -12 12 -8 7 4 8 3 4 -5 -4 -6 -11 -9 -16 -6 -4 3 -11 -1
-13 -7 -3 -7 -6 -3 -6 10 -1 13 -5 21 -10 18 -5 -4 -7 18 -5 50 4 52 3 56 -12
43 -16 -13 -16 -12 -6 8 7 12 12 39 12 59 0 36 -1 37 -15 18 -16 -20 -16 -18
0 31 7 24 12 19 38 -39z m795 -41 c-2 -1 -12 -7 -23 -13 -17 -9 -21 -7 -21 8
0 10 4 16 8 14 4 -3 8 0 8 7 0 8 4 8 15 -1 9 -7 14 -14 13 -15z m-830 -58 c12
-3 10 -5 -5 -6 -18 -1 -23 4 -22 22 1 15 3 17 6 5 2 -9 12 -19 21 -21z m111
10 c-2 -1 -13 -9 -24 -17 -19 -14 -19 -14 -6 3 7 9 18 17 24 17 6 0 8 -1 6 -3z
m-5 -43 c-1 -14 -6 -29 -10 -32 -4 -4 -4 1 -1 11 4 9 2 17 -5 17 -7 0 -6 5 2
15 17 20 18 19 14 -11z m700 -10 c3 -8 2 -12 -4 -9 -6 3 -10 10 -10 16 0 14 7
11 14 -7z m-714 -58 c0 -3 -4 -8 -10 -11 -5 -3 -10 -1 -10 4 0 6 5 11 10 11 6
0 10 -2 10 -4z m1217 -10 c0 -8 -6 -12 -15 -9 -11 5 -11 7 0 14 7 5 13 9 14 9
0 0 1 -6 1 -14z m-1247 -10 c0 -3 -4 -8 -10 -11 -5 -3 -10 -1 -10 4 0 6 5 11
10 11 6 0 10 -2 10 -4z m1265 -18 c5 4 5 2 2 -5 -9 -14 -40 -10 -45 6 -3 10 0
10 16 2 10 -6 23 -7 27 -3z m-1250 -19 c-4 -5 -12 -9 -18 -8 -9 0 -8 2 1 6 6
2 9 10 6 15 -4 7 -2 8 5 4 6 -4 9 -12 6 -17z m-35 -9 c0 -11 -4 -20 -10 -20
-5 0 -6 7 -3 17 5 12 3 14 -7 8 -9 -5 -11 -4 -6 3 11 19 26 14 26 -8z m-26
-26 c3 -8 10 -13 14 -10 5 3 9 -1 9 -9 0 -19 1 -19 -27 10 -13 14 -19 25 -13
25 6 0 14 -7 17 -16z"/>
<path d="M2170 2003 c8 -4 21 -12 28 -20 11 -11 11 -13 -2 -13 -9 0 -16 4 -16
9 0 6 -9 9 -20 8 -11 -1 -20 -5 -20 -9 0 -4 9 -13 20 -20 11 -7 20 -16 20 -21
0 -4 -4 -5 -10 -2 -5 3 -10 2 -10 -3 0 -6 7 -13 16 -16 8 -3 12 -11 9 -16 -4
-6 -3 -10 2 -9 4 1 10 0 13 -1 21 -8 61 -9 56 -1 -4 5 -2 12 3 15 5 3 11 -1
15 -9 3 -8 1 -15 -5 -15 -6 0 -7 -4 -4 -10 4 -6 -1 -7 -11 -3 -13 5 -15 3 -10
-8 4 -8 1 -6 -7 3 -8 10 -17 15 -21 11 -8 -8 23 -43 40 -43 7 0 16 -4 19 -10
4 -6 -1 -7 -12 -3 -16 6 -16 5 -4 -10 7 -9 18 -14 24 -10 5 3 7 2 4 -4 -4 -6
0 -19 7 -29 9 -11 11 -23 5 -30 -4 -6 -9 -24 -11 -41 -1 -22 -6 -29 -16 -26
-11 5 -11 7 0 14 9 6 9 9 1 9 -6 0 -25 -17 -42 -37 -22 -27 -27 -39 -18 -45
13 -8 -33 -5 -48 4 -19 10 -183 9 -190 -2 -11 -18 6 -33 19 -15 10 15 12 14
12 -4 0 -11 -4 -17 -8 -15 -4 3 -8 2 -8 -3 0 -4 35 -8 78 -7 42 0 82 -4 89 -9
7 -5 17 -6 23 -2 5 3 10 1 10 -4 0 -6 11 -11 24 -11 17 0 35 15 65 55 23 31
40 59 37 64 -3 5 0 8 7 7 16 -1 97 69 97 84 0 5 8 10 18 9 9 0 12 -3 5 -6 -8
-3 -9 -10 -4 -21 15 -29 33 -164 31 -237 -1 -63 2 -75 32 -120 17 -27 31 -53
30 -57 -1 -5 2 -8 8 -8 14 0 13 13 -2 29 -11 10 -9 11 6 5 15 -6 17 -4 10 7
-4 8 -9 20 -10 27 -2 10 1 11 12 1 8 -6 12 -14 9 -17 -3 -3 1 -12 8 -20 9 -13
9 -14 0 -8 -8 4 -13 1 -13 -8 0 -9 5 -15 12 -14 6 2 12 -10 13 -25 l2 -28 -22
21 c-28 26 -35 25 -35 -6 0 -14 4 -23 8 -20 5 3 7 -21 5 -52 -5 -68 -10 -85
-22 -78 -5 3 -33 1 -62 -5 -30 -6 -60 -12 -67 -13 -20 -4 -32 -20 -23 -34 6
-11 24 -11 94 -1 64 9 84 15 77 24 -6 7 -4 19 6 33 8 12 12 22 8 22 -4 0 1 7
12 16 17 14 17 15 1 10 -11 -4 -16 -2 -12 5 4 5 15 7 24 4 10 -3 18 0 18 7 0
7 4 21 8 31 5 12 2 17 -9 17 -9 0 -16 -5 -16 -11 0 -5 -5 -7 -12 -3 -8 5 -9 1
-4 -12 5 -14 4 -16 -4 -8 -15 15 -3 40 21 41 12 1 23 3 24 5 6 6 -13 91 -21
97 -5 3 -11 17 -12 31 -2 14 -9 30 -14 35 -7 7 -9 6 -5 -1 3 -6 0 -11 -7 -11
-8 0 -12 7 -9 14 4 10 -2 13 -22 9 -15 -3 -24 -2 -20 2 3 4 10 7 13 7 4 0 13
4 20 8 13 9 17 93 4 101 -5 3 -7 19 -4 35 3 24 -2 36 -24 56 -16 14 -22 24
-14 23 8 -2 18 -7 22 -13 13 -18 19 3 12 40 -4 24 -9 32 -14 24 -5 -7 -6 -19
-2 -28 3 -9 2 -13 -2 -9 -12 10 -14 68 -2 61 5 -4 7 1 3 11 -4 10 -7 22 -7 27
0 6 -5 7 -12 3 -7 -5 -9 -2 -5 8 3 9 1 20 -5 26 -12 12 -66 5 -86 -11 -9 -7
-18 -1 -35 19 -78 100 -119 144 -130 138 -7 -4 -9 -3 -4 1 10 11 -32 55 -52
54 -14 0 -14 -1 -1 -6z m38 -73 c10 -28 10 -29 -9 -17 -10 6 -15 13 -10 15 6
2 7 10 4 18 -3 8 -3 14 0 14 3 0 10 -13 15 -30z m106 -76 c13 -12 13 -18 3
-29 -6 -7 -16 -11 -21 -8 -4 3 -2 9 5 13 10 7 10 11 0 24 -17 21 -7 21 13 0z
m32 -52 c8 -5 3 -13 -14 -26 -14 -11 -22 -15 -19 -9 4 6 4 13 0 16 -5 2 -3 2
4 1 17 -4 26 13 11 19 -7 3 -8 6 -3 6 6 0 15 -3 21 -7z m129 -1 c3 -5 2 -12
-3 -15 -5 -3 -9 1 -9 9 0 17 3 19 12 6z m-55 -31 c-8 -5 -17 -7 -19 -4 -3 3 1
9 9 14 8 5 17 7 19 4 3 -3 -1 -9 -9 -14z m56 -25 c-13 -10 -15 -15 -6 -15 7 0
11 -3 7 -6 -3 -3 -11 -3 -18 2 -9 5 -7 11 6 21 11 7 21 13 24 13 3 0 -3 -7
-13 -15z m-154 -31 c-3 -18 -1 -25 6 -20 6 3 13 2 17 -3 3 -6 -4 -8 -16 -6
-28 6 -28 6 -18 33 11 30 17 28 11 -4z m48 -4 c0 -5 -5 -10 -11 -10 -5 0 -7 5
-4 10 3 6 8 10 11 10 2 0 4 -4 4 -10z m115 -30 c3 -6 -1 -7 -9 -4 -18 7 -21
14 -7 14 6 0 13 -4 16 -10z m-219 -73 c1 -8 -4 -14 -10 -14 -7 0 -12 11 -12
24 0 24 18 16 22 -10z m-112 -10 c3 3 6 1 6 -5 0 -16 -12 -15 -36 4 -18 15
-18 15 2 5 12 -6 24 -7 28 -4z m366 4 c0 -5 -10 -11 -22 -14 -22 -6 -22 -6 -4
8 23 17 26 18 26 6z m-412 -26 c-3 -3 -9 2 -12 12 -6 14 -5 15 5 6 7 -7 10
-15 7 -18z m102 -2 c0 -11 -3 -14 -8 -7 -4 6 -14 14 -22 17 -10 4 -8 6 8 6 15
1 22 -5 22 -16z m293 -34 c-3 -11 1 -21 11 -25 9 -3 16 -11 16 -16 0 -6 -6 -5
-15 2 -8 6 -18 10 -22 7 -4 -3 -8 10 -8 28 0 20 4 31 11 28 7 -2 10 -13 7 -24z
m27 -9 c0 -5 -2 -10 -4 -10 -3 0 -8 5 -11 10 -3 6 -1 10 4 10 6 0 11 -4 11
-10z m-15 -48 c9 -6 19 -32 12 -32 -1 0 -10 9 -20 20 -16 20 -12 27 8 12z m1
-81 c-4 -5 0 -11 6 -14 7 -2 10 -8 5 -12 -10 -12 -31 11 -23 24 4 6 9 11 12
11 3 0 3 -4 0 -9z m-11 -291 c-3 -5 -1 -10 6 -10 7 0 10 -3 6 -6 -9 -9 -28 6
-22 17 4 5 8 9 11 9 3 0 2 -4 -1 -10z m-21 -15 c2 -6 -2 -12 -10 -12 -8 0 -14
4 -14 8 0 5 -8 6 -17 3 -13 -4 -14 -3 -5 3 18 13 40 12 46 -2z m-70 -3 c3 -5
-1 -9 -9 -9 -8 0 -12 4 -9 9 3 4 7 8 9 8 2 0 6 -4 9 -8z"/>
<path d="M1146 1784 c-4 -10 -1 -14 6 -12 15 5 23 28 10 28 -5 0 -13 -7 -16
-16z"/>
<path d="M1113 1769 c-1 -15 3 -19 13 -15 9 3 12 2 9 -5 -4 -6 2 -13 14 -16
11 -3 18 -9 15 -14 -3 -5 -1 -9 5 -9 6 0 15 9 21 20 9 16 8 18 -5 14 -8 -4
-15 -1 -15 5 0 6 7 11 16 11 8 0 12 5 9 10 -4 7 -13 6 -26 -1 -16 -8 -25 -7
-38 5 -15 14 -17 13 -18 -5z"/>
<path d="M1868 1610 c-15 -4 -29 -5 -32 -2 -3 3 -6 0 -6 -7 0 -8 6 -11 16 -7
8 3 12 2 9 -4 -3 -5 0 -18 7 -29 10 -16 21 -19 52 -16 22 2 42 8 44 14 2 6 8
9 13 5 12 -7 11 -1 -4 30 -8 14 -17 23 -20 19 -4 -3 -2 -12 4 -20 18 -20 1
-15 -21 7 -22 22 -23 22 -62 10z m31 -24 c-8 -16 -17 -22 -27 -18 -13 5 -14 6
-1 10 7 3 18 11 22 18 13 23 17 16 6 -10z m32 -13 c13 -16 12 -17 -3 -4 -10 7
-18 15 -18 17 0 8 8 3 21 -13z"/>
<path d="M666 1478 c5 -7 3 -8 -6 -3 -8 5 -19 -1 -31 -16 -17 -22 -17 -25 -1
-43 9 -11 11 -16 5 -12 -9 5 -11 2 -7 -8 3 -9 9 -16 13 -17 3 0 16 -2 29 -5
12 -2 22 1 22 7 0 5 4 8 9 4 11 -6 21 7 27 38 2 14 -4 32 -17 45 -21 23 -56
31 -43 10z m42 -28 c7 -11 11 -20 9 -20 -2 0 -12 9 -22 20 -10 11 -14 20 -9
20 5 0 15 -9 22 -20z m-34 -58 c3 -5 -1 -9 -9 -9 -8 0 -12 4 -9 9 3 4 7 8 9 8
2 0 6 -4 9 -8z"/>
<path d="M1039 1473 c-22 -26 -24 -73 -5 -73 9 0 16 -7 16 -16 0 -8 5 -12 10
-9 14 9 12 33 -2 38 -8 2 -7 3 2 3 8 -1 16 -11 18 -23 2 -14 8 -20 17 -17 10
4 11 12 5 29 -8 20 -6 22 13 19 12 -2 17 -2 10 2 -7 3 -10 11 -7 18 7 17 -22
46 -45 46 -10 0 -24 -8 -32 -17z m16 -13 c-3 -5 -2 -10 4 -10 5 0 12 6 14 13
3 7 6 5 6 -5 1 -10 -3 -18 -8 -18 -5 0 -18 -3 -28 -6 -15 -5 -15 -4 -3 5 13 9
13 11 0 11 -13 0 -13 1 0 10 19 12 23 12 15 0z m55 -10 c0 -5 -2 -10 -4 -10
-3 0 -8 5 -11 10 -3 6 -1 10 4 10 6 0 11 -4 11 -10z"/>
<path d="M1833 1290 c-3 -11 -9 -20 -14 -20 -5 0 -6 8 -2 18 3 9 3 14 -2 10
-4 -4 -9 -23 -11 -41 -6 -49 24 -74 66 -57 16 7 30 16 30 21 0 5 0 12 0 16 0
4 -14 7 -30 7 -24 -1 -28 1 -19 12 9 11 8 14 -2 14 -8 0 -6 5 5 13 18 13 18
14 1 20 -12 5 -18 1 -22 -13z"/>
<path d="M2550 1305 c0 -2 6 -8 13 -14 10 -8 14 -7 14 2 0 8 -6 14 -14 14 -7
0 -13 -1 -13 -2z"/>
<path d="M765 1279 c-58 -31 -37 -113 40 -155 31 -17 37 -17 46 -4 8 12 9 11
5 -5 -2 -11 -8 -35 -11 -53 -5 -25 -14 -36 -36 -44 -16 -5 -29 -17 -29 -25 0
-10 6 -13 16 -9 15 6 15 4 3 -10 -12 -15 -14 -14 -22 4 -8 17 -49 38 -68 34
-3 0 -18 19 -34 44 -33 52 -65 60 -65 15 0 -30 21 -56 36 -43 5 4 6 3 2 -2
-14 -17 11 -44 34 -39 18 4 20 2 8 -6 -22 -15 38 -37 63 -22 11 7 17 8 17 1 0
-17 28 -11 65 13 37 24 42 36 23 56 -11 10 -10 11 5 5 12 -4 16 -2 12 8 -4 9
0 15 9 15 8 0 12 -6 8 -15 -4 -11 -1 -13 9 -8 11 6 10 4 -1 -6 -29 -26 -19
-45 22 -39 4 0 5 -6 2 -14 -6 -15 14 -22 76 -23 34 -2 67 14 105 51 l20 20
-28 -5 c-15 -3 -30 -2 -33 3 -6 10 -54 -10 -54 -23 0 -13 12 -10 31 8 17 16
18 15 6 -9 -7 -15 -17 -23 -26 -19 -9 3 -12 1 -7 -6 5 -8 2 -10 -9 -5 -12 4
-13 8 -5 13 8 5 9 10 2 14 -6 3 -13 2 -17 -4 -3 -5 -11 -10 -17 -10 -7 0 -6 6
2 15 10 12 9 15 -4 15 -23 0 -66 48 -66 74 0 12 -8 33 -17 46 l-16 25 24 -22
c32 -29 34 -29 66 5 15 15 23 21 18 13 -5 -10 -4 -12 3 -7 7 4 12 14 12 22 0
8 -4 13 -8 10 -4 -2 -8 6 -8 19 0 14 2 22 6 19 3 -3 5 -11 5 -17 0 -5 6 -12
14 -15 8 -3 11 0 7 7 -4 6 -2 11 3 11 22 0 11 49 -15 69 -34 27 -47 27 -40 -1
4 -20 4 -19 -5 2 -10 23 -16 25 -82 25 -47 0 -82 -5 -102 -16z m36 -16 c13
-16 12 -17 -3 -4 -10 7 -18 15 -18 17 0 8 8 3 21 -13z m92 3 c4 -9 -3 -16 -21
-19 -23 -4 -24 -4 -9 7 9 7 14 16 10 19 -3 4 -2 7 4 7 6 0 13 -6 16 -14z
m-118 -27 c1 -8 6 -13 13 -12 6 2 9 -4 6 -11 -5 -12 -8 -12 -23 2 -9 9 -13 19
-8 21 5 2 3 8 -4 13 -11 8 -11 9 1 5 8 -2 15 -10 15 -18z m144 -1 c-13 -13
-26 -19 -28 -15 -3 9 28 36 43 37 5 0 -2 -10 -15 -22z m-146 -38 c9 -11 13
-20 9 -20 -4 0 -15 9 -25 20 -9 11 -13 20 -9 20 4 0 15 -9 25 -20z m30 -36
c-3 -9 0 -20 8 -25 9 -6 10 -9 2 -9 -6 0 -15 5 -18 10 -7 11 0 40 9 40 3 0 3
-7 -1 -16z m141 -25 c3 -3 -4 -5 -14 -6 -11 -1 -20 2 -20 7 0 8 25 8 34 -1z
m-59 -49 c3 -18 2 -20 -10 -10 -8 6 -11 18 -8 26 7 18 12 13 18 -16z m-239
-18 c0 -10 -6 -19 -13 -19 -8 0 -9 6 -2 19 5 10 11 18 12 18 2 0 3 -8 3 -18z
m210 -64 c4 -6 3 -8 -4 -4 -6 3 -15 -1 -20 -10 -8 -15 -10 -15 -15 0 -4 10 -3
14 2 11 5 -3 12 -1 16 5 8 13 12 13 21 -2z"/>
<path d="M1886 1285 c5 -11 1 -14 -12 -9 -14 4 -16 3 -5 -4 11 -8 11 -10 0
-15 -10 -4 -9 -6 4 -6 9 -1 17 4 17 10 0 5 5 7 11 3 8 -4 8 0 0 15 -13 24 -23
28 -15 6z"/>
<path d="M2216 1291 c-3 -5 1 -11 8 -14 8 -3 14 -15 13 -26 0 -11 -5 -18 -9
-15 -4 3 -5 11 -1 19 3 8 0 15 -6 15 -6 0 -11 -11 -11 -24 0 -16 7 -26 22 -29
26 -7 27 -7 31 21 2 11 11 30 22 42 16 18 16 20 2 20 -10 0 -17 -4 -17 -10 0
-5 -7 -10 -15 -10 -8 0 -15 5 -15 10 0 12 -17 13 -24 1z"/>
<path d="M2279 1263 c-8 -9 -9 -14 -3 -10 7 4 14 0 17 -8 4 -9 1 -12 -7 -9 -8
3 -16 -4 -19 -16 -4 -17 -11 -20 -29 -16 -23 6 -23 6 -1 -5 24 -13 58 -5 48
11 -3 5 1 10 9 10 9 0 14 8 13 20 -1 11 -6 20 -12 20 -5 0 -3 5 5 10 8 5 10
10 4 10 -6 0 -18 -8 -25 -17z"/>
<path d="M2562 1138 c-16 -24 -18 -35 -9 -40 9 -6 7 -12 -7 -23 -11 -8 -21
-23 -23 -33 -2 -19 18 -72 29 -72 8 0 5 20 -9 45 -8 16 -6 24 12 42 17 16 25
19 28 9 3 -8 0 -19 -6 -25 -6 -6 -7 -11 -3 -11 5 0 3 -7 -4 -15 -8 -9 -8 -15
-2 -15 14 0 35 67 28 86 -4 10 -2 13 6 8 8 -5 9 -2 5 9 -4 11 -1 17 9 17 8 0
12 -4 9 -10 -8 -13 35 -13 55 0 13 8 12 10 -3 10 -10 0 -15 5 -12 11 5 7 -3
10 -21 8 -45 -3 -64 0 -64 12 0 5 5 7 10 4 6 -3 10 -1 10 4 0 21 -18 11 -38
-21z m28 -12 c0 -2 -7 -7 -16 -10 -8 -3 -12 -2 -9 4 6 10 25 14 25 6z"/>
<path d="M2015 1140 c-25 -4 -30 -10 -31 -34 -1 -22 6 -33 27 -45 34 -19 37
-43 9 -71 -25 -25 -53 -24 -105 1 -22 11 -32 17 -22 14 12 -3 17 -1 15 7 -3 7
-12 14 -21 16 -23 5 -22 -36 1 -64 21 -26 59 -47 72 -39 5 3 11 1 14 -4 3 -5
15 -7 26 -4 11 3 17 9 14 14 -3 5 1 6 9 3 9 -3 22 4 31 17 14 21 14 25 0 40
-12 14 -13 18 -2 25 7 4 10 4 6 0 -9 -11 33 -57 45 -49 6 3 7 1 3 -6 -6 -9
-11 -9 -22 0 -10 8 -14 8 -14 0 0 -6 5 -11 11 -11 6 0 7 -6 2 -12 -4 -8 3 -6
17 3 16 10 32 13 45 8 11 -4 14 -8 8 -8 -7 -1 -13 -5 -13 -10 0 -12 39 -7 68
8 17 9 21 16 13 25 -6 7 -8 16 -4 19 3 4 -1 7 -10 7 -9 0 -19 -4 -22 -10 -3
-5 -21 -10 -39 -10 -41 0 -77 38 -69 71 5 17 3 20 -7 14 -9 -5 -11 -4 -6 4 5
8 12 9 20 2 20 -16 53 13 52 45 -1 25 -26 49 -26 25 0 -6 -5 -11 -11 -11 -5 0
-8 4 -5 9 7 11 -40 18 -79 11z m-8 -27 c-4 -3 -1 -13 6 -22 11 -14 10 -14 -5
-2 -16 12 -16 31 -1 31 4 0 3 -3 0 -7z m58 -13 c8 -13 -5 -13 -25 0 -13 8 -13
10 2 10 9 0 20 -4 23 -10z m64 -13 c-2 -1 -11 -8 -20 -15 -13 -9 -16 -9 -16 3
0 8 9 15 20 15 11 0 18 -1 16 -3z m-212 -122 c0 -8 -4 -12 -9 -9 -5 3 -6 10
-3 15 9 13 12 11 12 -6z m131 3 c-2 -6 -11 -12 -20 -14 -11 -1 -15 3 -11 12 6
17 36 19 31 2z m157 -7 c3 -6 -3 -14 -13 -20 -14 -7 -19 -6 -19 4 0 7 7 11 15
7 10 -3 13 -1 8 6 -4 7 -5 12 -2 12 3 0 7 -4 11 -9z"/>
<path d="M1112 1103 c-7 -3 -17 -14 -23 -25 -10 -19 -9 -20 10 -15 12 3 19 1
15 -4 -3 -5 1 -9 9 -9 14 0 27 20 27 40 0 11 -22 18 -38 13z m28 -24 c0 -6 -4
-7 -10 -4 -5 3 -10 11 -10 16 0 6 5 7 10 4 6 -3 10 -11 10 -16z"/>
<path d="M2562 1048 c-7 -7 -12 -19 -12 -27 0 -14 15 -7 15 7 0 4 4 13 8 20
10 15 5 16 -11 0z"/>
<path d="M1075 1041 c-3 -5 8 -9 25 -9 21 1 27 4 18 9 -17 11 -35 11 -43 0z"/>
<path d="M2217 1016 c-4 -9 -2 -18 4 -21 5 -4 6 -11 3 -17 -4 -6 -1 -9 7 -6
17 6 19 50 3 55 -6 2 -14 -3 -17 -11z"/>
<path d="M2373 1012 c-21 -13 1 -31 51 -42 37 -8 52 -8 65 2 13 10 14 10 4 -1
-6 -7 -9 -19 -7 -25 3 -7 -16 -32 -41 -57 -53 -50 -80 -95 -65 -104 6 -3 10
-2 10 4 0 5 9 8 20 6 12 -2 23 2 27 11 4 12 8 11 23 -6 19 -22 35 -27 24 -7
-4 6 -4 9 1 5 4 -4 15 -2 24 4 14 11 14 10 0 -7 -9 -11 -15 -29 -13 -40 2 -16
-1 -15 -20 9 -14 16 -26 24 -30 18 -3 -6 0 -13 6 -15 8 -4 7 -6 -3 -6 -9 -1
-20 -8 -23 -17 -5 -12 -2 -15 9 -10 9 3 13 2 10 -4 -3 -6 -13 -10 -22 -10 -9
0 -13 -6 -10 -15 4 -8 2 -17 -4 -20 -5 -4 -6 -11 -3 -17 4 -7 2 -8 -4 -4 -8 4
-16 -4 -23 -21 -6 -15 -20 -38 -31 -50 -12 -13 -18 -23 -14 -23 5 0 -6 -14
-23 -32 -33 -34 -37 -43 -21 -53 9 -5 14 7 12 27 -2 13 26 29 33 18 4 -6 2 -9
-3 -8 -6 2 -9 -1 -8 -7 0 -5 6 -9 12 -9 6 1 11 -4 11 -11 0 -7 -9 -12 -19 -10
-21 4 -24 -8 -5 -24 11 -8 18 -7 31 7 9 10 13 22 9 25 -3 4 0 7 7 7 7 0 11 3
7 6 -3 4 2 14 13 23 23 19 32 67 12 63 -8 -1 -11 2 -7 8 3 5 0 10 -7 10 -10 0
-10 2 1 9 7 5 11 13 7 19 -3 6 1 9 9 8 23 -3 29 -14 17 -29 -11 -13 -7 -27 9
-27 4 0 13 15 19 34 6 19 18 40 26 46 7 7 14 17 14 23 0 5 -11 -2 -25 -17 -23
-25 -42 -36 -31 -17 4 5 1 11 -6 13 -9 3 -9 6 0 12 7 4 12 2 12 -3 0 -19 18
-12 25 9 3 11 14 20 23 20 15 0 15 2 2 10 -10 6 -11 10 -3 10 14 0 36 47 46
97 5 25 3 31 -8 27 -10 -4 -12 0 -8 17 4 13 8 18 11 11 2 -6 8 -12 14 -12 6 0
8 6 5 14 -5 13 16 40 58 75 13 10 19 11 28 1 9 -9 9 -11 -2 -8 -7 2 -16 -3
-19 -11 -3 -10 0 -12 12 -8 9 4 16 2 16 -3 0 -16 27 -11 34 6 9 23 8 24 -17
33 -34 13 -105 23 -89 12 11 -6 10 -9 -3 -15 -27 -10 -33 -7 -37 16 -2 19 -12
24 -57 31 -45 8 -56 6 -63 -7 -5 -9 -14 -16 -21 -16 -8 0 -8 3 2 9 7 5 9 11 4
14 -5 3 -14 2 -20 -1z m95 -27 c-3 -3 -9 2 -12 12 -6 14 -5 15 5 6 7 -7 10
-15 7 -18z m43 -28 c-10 -9 -11 -8 -5 6 3 10 9 15 12 12 3 -3 0 -11 -7 -18z
m52 -23 c-14 -14 -27 -23 -29 -21 -5 5 35 47 46 47 5 0 -2 -12 -17 -26z m-48
-23 c-16 -33 -29 -42 -18 -14 4 11 3 14 -6 9 -10 -6 -10 -4 0 12 7 12 17 18
21 16 4 -3 8 0 8 7 0 7 3 10 6 7 3 -4 -2 -20 -11 -37z m-22 -45 c9 10 2 -20
-11 -41 -6 -11 -12 -15 -12 -8 0 6 5 15 10 18 6 4 8 11 4 16 -3 6 -12 3 -20
-8 -13 -16 -14 -16 -8 0 4 12 1 17 -12 18 -17 0 -17 1 1 8 11 5 25 5 31 0 6
-5 13 -6 17 -3z m-62 -29 c-6 -8 -8 -17 -4 -20 3 -4 -1 -7 -10 -7 -20 0 -18
22 3 32 22 10 24 9 11 -5z m36 -109 c-3 -8 -6 -5 -6 6 -1 11 2 17 5 13 3 -3 4
-12 1 -19z m-70 -183 c5 -4 2 -5 -4 -1 -8 4 -13 2 -13 -5 0 -8 -3 -9 -13 0 -8
6 -18 7 -22 3 -5 -4 -5 -2 -2 4 7 12 43 12 54 -1z"/>
<path d="M2110 935 c-8 -9 -8 -15 -2 -15 12 0 26 19 19 26 -2 2 -10 -2 -17
-11z"/>
<path d="M1237 793 c-10 -9 -9 -25 1 -19 5 3 8 -4 8 -16 -1 -28 29 -47 46 -30
10 10 10 14 -1 21 -10 7 -11 9 -1 13 10 3 10 9 3 22 -7 13 -12 15 -18 7 -5 -8
-11 -9 -19 -2 -7 6 -16 8 -19 4z"/>
<path d="M905 777 c-12 -10 -14 -16 -7 -21 7 -4 12 -1 12 6 0 9 3 9 10 -2 5
-8 10 -13 11 -10 0 3 2 13 4 23 4 20 -5 22 -30 4z"/>
<path d="M949 785 c-1 -3 -3 -9 -4 -15 -1 -5 -3 -15 -4 -21 0 -6 -8 -8 -17 -5
-10 4 -13 2 -8 -7 5 -8 2 -7 -9 2 -9 7 -17 10 -17 5 0 -5 -4 -3 -8 4 -7 9 -13
8 -26 -7 -19 -21 -15 -58 5 -46 6 4 8 13 6 19 -3 7 0 13 6 13 7 0 12 -13 12
-28 1 -22 -2 -26 -12 -17 -7 6 -13 7 -13 3 0 -4 -7 -2 -15 5 -12 10 -16 8 -25
-15 -14 -38 -12 -81 5 -98 8 -8 12 -17 9 -20 -10 -9 21 -47 34 -42 7 3 10 1 7
-4 -8 -14 37 -43 49 -31 6 6 15 10 20 10 6 0 5 -4 -3 -9 -9 -6 -4 -10 18 -13
17 -2 31 -1 31 2 0 4 11 6 25 5 14 -2 25 1 25 6 0 4 6 6 13 3 15 -5 60 38 63
62 7 43 11 44 333 44 l307 0 22 -46 c16 -32 27 -44 38 -40 8 3 12 2 9 -4 -3
-5 3 -14 14 -19 25 -14 134 -15 126 -1 -3 5 0 7 9 4 20 -7 58 14 50 28 -4 6
-3 8 3 5 6 -4 16 0 23 8 7 8 9 15 6 15 -4 0 0 10 8 22 17 24 22 108 6 108 -5
0 -7 6 -4 14 3 8 -8 28 -24 45 -33 35 -44 39 -35 14 3 -10 3 -15 -1 -11 -4 3
-8 12 -10 20 -3 20 -16 38 -27 38 -6 0 -8 -4 -5 -9 9 -13 -19 -21 -35 -9 -11
8 -10 9 4 4 9 -3 17 -1 17 4 0 5 -18 9 -40 7 -24 -1 -39 -6 -36 -13 2 -6 0
-17 -5 -25 -8 -11 -9 -9 -7 6 2 12 -3 20 -11 20 -8 0 -15 -8 -17 -19 -1 -10
-8 -24 -14 -30 -8 -8 -9 -6 -5 7 4 9 3 17 -3 17 -14 0 -33 -26 -25 -33 3 -4 0
-7 -8 -7 -10 -1 -8 -5 5 -15 17 -13 18 -17 6 -28 -9 -8 -11 -8 -6 0 8 15 -14
29 -23 14 -5 -8 -57 -12 -162 -12 -105 -1 -156 -5 -161 -12 -6 -9 -8 -8 -8 2
0 11 -3 11 -15 1 -8 -7 -15 -9 -15 -4 0 5 -43 9 -95 9 -52 0 -95 -4 -95 -9 0
-5 -6 -3 -14 3 -8 7 -26 10 -40 7 -15 -3 -24 -1 -21 3 2 5 -2 14 -10 21 -8 7
-13 16 -10 20 8 12 -52 63 -66 55 -8 -5 -10 -4 -5 3 9 15 -42 28 -56 14 -7 -7
-4 -19 7 -38 l17 -29 -26 30 c-18 21 -22 31 -13 37 8 5 7 8 -5 8 -10 0 -19 -2
-19 -5z m962 -22 c13 -16 12 -17 -3 -4 -17 13 -22 21 -14 21 2 0 10 -8 17 -17z
m-943 -26 c8 -10 5 -13 -16 -14 -15 0 -19 1 -9 4 9 2 15 9 12 14 -9 14 1 11
13 -4z m106 4 c-9 -9 -52 -12 -57 -4 -3 5 10 8 28 8 19 0 32 -2 29 -4z m892
-7 c18 6 17 5 0 -9 -11 -8 -15 -15 -10 -15 30 0 59 -110 33 -125 -6 -4 -8 -13
-6 -19 3 -8 -12 -16 -44 -22 -30 -7 -49 -7 -49 -1 0 5 -7 6 -16 3 -8 -3 -13
-2 -10 3 3 5 0 14 -8 20 -11 9 -15 9 -20 -1 -3 -7 -3 -3 0 10 4 16 1 22 -13
23 -10 0 -13 3 -5 6 6 2 12 9 12 14 0 6 -6 7 -12 3 -15 -9 40 67 56 79 8 5 7
10 -2 16 -11 6 -9 9 6 13 15 4 19 2 15 -8 -4 -10 3 -14 21 -14 14 0 26 5 26
10 0 6 -8 10 -17 10 -15 0 -16 2 -3 10 9 6 17 5 21 -2 4 -6 15 -8 25 -4z
m-116 -8 c0 -2 -8 -10 -17 -17 -16 -13 -17 -12 -4 4 13 16 21 21 21 13z m-790
-16 c0 -5 -7 -7 -15 -4 -19 8 -19 -7 0 -32 19 -25 19 -58 -1 -97 -13 -24 -14
-32 -4 -35 9 -3 9 -6 0 -12 -6 -4 -13 -15 -14 -25 -2 -11 -8 -21 -14 -23 -16
-5 -15 9 3 32 15 20 12 36 -7 36 -6 0 -7 -8 -3 -17 5 -15 4 -16 -6 -5 -7 6
-21 12 -30 12 -10 0 -31 12 -48 26 -37 31 -41 72 -11 114 17 24 29 30 73 33
29 2 58 4 65 5 6 1 12 -2 12 -8z m46 -7 c-2 -10 2 -22 8 -26 7 -6 6 -7 -4 -4
-14 3 -21 23 -13 40 7 13 11 8 9 -10z m905 -3 c6 0 7 6 3 13 -5 7 -1 6 10 -2
17 -14 17 -16 0 -28 -22 -16 -46 1 -37 25 4 10 8 12 11 4 2 -7 8 -12 13 -12z
m-931 -35 c0 -8 -2 -15 -4 -15 -2 0 -6 7 -10 15 -3 8 -1 15 4 15 6 0 10 -7 10
-15z m967 -11 c1 -18 -2 -23 -9 -16 -6 6 -8 18 -5 26 9 22 12 20 14 -10z
m-504 -1 c-7 -2 -19 -2 -25 0 -7 3 -2 5 12 5 14 0 19 -2 13 -5z m74 -15 c-3
-8 -6 -5 -6 6 -1 11 2 17 5 13 3 -3 4 -12 1 -19z m186 7 c-3 -9 -8 -14 -10
-11 -3 3 -2 9 2 15 9 16 15 13 8 -4z m-93 -5 c0 -5 -5 -10 -11 -10 -5 0 -7 5
-4 10 3 6 8 10 11 10 2 0 4 -4 4 -10z m-830 -20 c0 -4 -11 -7 -25 -5 -37 4
-40 12 -5 13 16 0 30 -3 30 -8z m910 -10 c0 -5 -2 -10 -4 -10 -3 0 -8 5 -11
10 -3 6 -1 10 4 10 6 0 11 -4 11 -10z m-677 -19 c6 -23 -12 -53 -20 -33 -2 6
-9 10 -13 7 -5 -3 -12 0 -16 6 -5 8 -3 9 5 5 8 -5 14 0 18 13 7 26 19 27 26 2z
m945 1 c11 9 10 5 -3 -14 -20 -27 -44 -40 -28 -15 4 6 7 21 6 32 -1 17 -1 17
3 2 5 -15 8 -16 22 -5z m-258 -12 c-20 -13 -33 -13 -25 0 3 6 14 10 23 10 15
0 15 -2 2 -10z m-915 -10 c-27 -12 -43 -12 -25 0 8 5 22 9 30 9 10 0 8 -3 -5
-9z m38 -49 c-4 -16 -8 -17 -18 -8 -10 10 -10 13 4 19 9 4 17 7 18 7 0 1 -1
-8 -4 -18z m1073 -7 c0 -15 -5 -20 -14 -17 -11 5 -11 7 0 14 7 5 9 9 3 10 -5
0 -18 2 -27 4 -20 4 -25 -11 -6 -17 8 -3 3 -10 -12 -18 -22 -12 -24 -12 -12 2
9 11 10 18 2 23 -5 3 -10 1 -10 -6 0 -7 -3 -9 -7 -5 -12 12 22 32 54 31 23 0
29 -4 29 -21z m-1049 1 c0 -8 -4 -12 -9 -9 -5 3 -6 10 -3 15 9 13 12 11 12 -6z
m42 -13 c-1 -15 -2 -15 -6 1 -2 9 -9 14 -15 11 -7 -4 -8 -2 -4 5 10 15 26 4
25 -17z m888 14 c0 -8 -9 -17 -19 -19 -21 -6 -23 -1 -5 18 16 18 24 19 24 1z
m-817 0 c0 -3 -4 -8 -10 -11 -5 -3 -10 -1 -10 4 0 6 5 11 10 11 6 0 10 -2 10
-4z m30 0 c0 -2 -8 -10 -17 -17 -16 -13 -17 -12 -4 4 13 16 21 21 21 13z"/>
<path d="M473 678 c-16 -19 -3 -36 30 -40 18 -2 35 -14 47 -33 l19 -31 -24 0
c-13 0 -22 3 -19 7 5 8 -24 34 -31 27 -3 -3 4 -16 15 -31 11 -14 20 -30 20
-36 0 -6 9 -15 20 -21 11 -6 18 -15 15 -20 -3 -5 0 -12 6 -16 9 -5 10 0 6 15
-5 20 -3 22 19 18 29 -5 43 11 23 27 -8 6 -15 18 -17 26 -2 8 -15 26 -30 39
-15 13 -21 20 -14 16 12 -6 12 -3 2 16 -16 30 -25 39 -17 17 4 -12 2 -15 -8
-11 -11 4 -12 10 -5 24 8 15 7 17 -5 13 -8 -4 -15 -11 -15 -17 0 -6 -6 -3 -13
7 -11 15 -15 16 -24 4z m14 -13 c0 -8 -4 -12 -9 -9 -5 3 -6 10 -3 15 9 13 12
11 12 -6z m83 -116 c0 8 2 12 5 9 3 -3 3 -12 -1 -21 -4 -13 -9 -14 -19 -4 -7
7 -11 16 -8 21 3 4 9 2 14 -5 7 -12 9 -12 9 0z"/>
<path d="M495 620 c28 -12 37 -12 30 0 -3 6 -16 10 -28 9 -21 0 -21 -1 -2 -9z"/>
<path d="M535 590 c3 -5 8 -10 11 -10 2 0 4 5 4 10 0 6 -5 10 -11 10 -5 0 -7
-4 -4 -10z"/>
<path d="M625 510 c-3 -5 -12 -7 -20 -3 -18 6 -20 -15 -4 -37 9 -13 10 -12 5
3 -3 11 -2 16 4 12 15 -9 13 -48 -2 -39 -7 4 -1 -4 15 -19 15 -14 27 -31 27
-38 0 -6 7 -8 16 -5 8 3 13 2 10 -3 -8 -12 19 -33 28 -23 4 4 6 0 4 -8 -1 -8
7 -19 20 -25 12 -5 25 -18 28 -28 5 -15 8 -16 21 -6 12 11 14 10 11 -5 -4 -22
79 -86 101 -78 8 3 12 1 8 -4 -3 -6 3 -15 14 -22 26 -16 25 2 -2 29 -17 17
-23 19 -31 8 -8 -12 -9 -12 -6 0 2 8 17 15 33 17 17 2 25 0 18 -4 -15 -9 5
-37 27 -37 9 0 14 -8 13 -20 -1 -14 8 -25 30 -35 18 -8 37 -15 42 -16 6 0 32
-11 58 -22 56 -25 61 -26 51 -11 -3 6 4 4 18 -5 13 -9 38 -17 54 -19 16 -2 36
-7 43 -11 7 -5 18 -1 27 10 13 16 15 16 10 2 -2 -9 1 -18 7 -21 20 -7 301 -2
315 6 7 5 12 3 12 -4 0 -8 6 -6 18 4 10 10 23 17 28 17 5 0 2 -5 -6 -11 -11
-8 -7 -9 19 -5 42 8 50 14 31 26 -9 6 -10 10 -3 10 6 0 15 -5 18 -10 3 -6 14
-10 23 -10 16 1 16 1 0 11 -20 11 -14 36 7 36 11 0 12 -4 4 -14 -8 -9 -8 -13
-1 -13 6 0 16 8 22 18 9 14 10 13 4 -6 -5 -21 -3 -23 18 -17 39 12 78 35 78
45 0 6 5 10 11 10 5 0 7 -4 4 -10 -11 -17 11 -11 39 11 15 11 34 22 43 23 9 2
19 9 21 16 3 8 0 10 -9 5 -12 -7 -12 -6 0 6 10 11 15 11 18 1 3 -6 9 -9 15 -6
6 4 5 10 -3 15 -12 7 -12 10 0 21 11 11 13 11 6 -1 -6 -11 -4 -13 9 -8 10 4
15 3 11 -3 -9 -15 4 -12 20 4 8 7 12 16 9 19 -3 2 2 7 11 11 10 4 14 2 9 -5
-4 -7 7 -1 25 12 33 24 38 38 20 56 -7 7 -6 12 6 17 9 3 14 2 10 -3 -3 -5 -2
-16 1 -24 4 -11 14 -6 45 22 34 33 53 61 32 48 -5 -3 -9 7 -9 21 -2 26 -1 26
9 4 5 -12 13 -22 16 -22 4 0 22 16 41 36 l34 37 -29 23 -29 23 -23 -21 c-25
-24 -32 -48 -8 -28 8 7 15 9 16 4 0 -5 2 -17 4 -27 2 -9 -1 -15 -6 -11 -5 3
-7 9 -4 14 3 5 -7 8 -22 7 -33 -3 -59 -43 -41 -64 6 -8 8 -16 4 -20 -3 -3 -6
0 -6 8 0 12 -2 12 -9 0 -6 -9 -11 -10 -15 -2 -4 6 -3 11 2 11 5 0 9 7 9 16 0
14 -2 14 -14 -2 -7 -10 -13 -25 -13 -33 0 -13 -2 -14 -9 -2 -7 11 -16 8 -45
-14 -28 -21 -34 -30 -24 -37 9 -6 5 -7 -10 -3 -15 4 -24 1 -28 -9 -3 -9 -10
-14 -14 -11 -4 2 -15 -4 -25 -15 -10 -11 -22 -17 -26 -14 -5 3 -9 0 -9 -5 0
-17 20 -13 38 7 10 10 13 12 9 5 -5 -6 -6 -17 -2 -23 4 -6 3 -10 -2 -9 -21 4
-47 -2 -38 -9 6 -4 11 -14 13 -22 2 -8 0 -12 -4 -7 -4 4 -17 -1 -28 -10 -15
-14 -18 -14 -8 -2 14 18 6 30 -14 22 -8 -3 -21 0 -28 7 -11 9 -21 8 -45 -5
-47 -24 -41 -39 14 -36 14 0 16 -1 5 -6 -8 -3 -18 -11 -22 -17 -5 -8 -8 -7 -8
2 0 6 -5 12 -11 12 -6 0 -8 -9 -4 -22 5 -20 4 -21 -5 -5 -6 9 -9 21 -6 25 2 4
1 14 -5 22 -5 9 -9 10 -9 3 0 -6 -8 -9 -19 -6 -13 3 -27 -4 -41 -20 -12 -14
-29 -24 -38 -22 -10 2 -17 4 -17 6 0 1 -12 2 -27 3 -22 2 -25 -1 -17 -15 5
-10 14 -20 21 -22 10 -4 9 -6 -1 -6 -7 -1 -21 7 -30 17 -14 17 -32 19 -153 19
-127 0 -138 -2 -138 -19 0 -10 -4 -18 -9 -18 -5 0 -7 9 -4 19 4 16 -3 20 -49
27 -29 4 -56 7 -60 6 -5 -1 -8 2 -8 7 0 5 -18 13 -40 19 -22 5 -37 6 -34 1 3
-5 0 -9 -5 -9 -6 0 -11 3 -11 8 0 14 -66 43 -83 36 -10 -3 -17 -17 -17 -31 0
-16 4 -22 12 -17 7 4 8 3 4 -4 -12 -19 -31 -3 -31 27 0 16 3 27 7 25 4 -2 9 0
12 4 3 5 -7 15 -22 21 -15 7 -27 11 -28 9 0 -1 -15 9 -33 25 -18 15 -37 25
-42 21 -5 -3 -12 2 -15 10 -3 9 -11 16 -16 16 -6 0 -6 -6 2 -14 8 -11 9 -20 1
-33 -6 -11 -11 -13 -11 -5 0 7 -5 10 -10 7 -6 -4 -9 -1 -8 6 2 6 -3 14 -11 17
-10 3 -12 0 -8 -12 9 -23 0 -20 -14 5 -8 15 -8 19 0 15 6 -4 11 -2 11 5 0 7
11 2 25 -11 22 -20 38 -16 18 4 -5 4 -8 13 -8 19 0 7 -12 11 -25 9 -18 -1 -21
1 -11 7 17 11 -1 23 -23 15 -9 -3 -16 -1 -16 6 0 6 5 8 11 4 7 -4 10 -1 7 7
-2 7 -16 13 -30 14 -14 0 -32 6 -40 12 -8 7 -18 10 -22 6 -4 -4 -4 0 0 10 3 9
2 17 -3 17 -5 0 -10 7 -10 15 0 21 2 19 25 -18 18 -31 58 -49 49 -23 -2 6 -10
11 -18 11 -8 0 -18 10 -24 23 -5 12 -18 25 -28 28 -9 3 -15 9 -12 14 7 12 -23
33 -38 27 -8 -3 -14 1 -14 9 0 7 4 11 9 8 4 -3 8 0 8 5 0 14 -17 14 -25 1z
m41 -54 c2 -14 -20 -16 -33 -2 -4 4 -1 6 7 4 9 -2 14 3 12 12 -2 8 0 11 4 7 4
-4 9 -14 10 -21z m1619 -4 c-3 -3 -11 0 -18 7 -9 10 -8 11 6 5 10 -3 15 -9 12
-12z m-1610 -41 c-3 -6 -11 -11 -17 -11 -6 0 -6 6 2 15 14 17 26 13 15 -4z
m1542 -6 c0 -8 -4 -12 -9 -9 -5 3 -6 10 -3 15 9 13 12 11 12 -6z m-1450 -88
c1 -11 1 -18 0 -16 -2 2 -8 11 -15 20 -9 12 -9 16 1 16 7 0 14 -9 14 -20z
m1358 -8 c11 -16 1 -19 -13 -3 -7 8 -8 14 -3 14 5 0 13 -5 16 -11z m3 -35 c2
-1 0 -4 -5 -7 -4 -3 -17 7 -27 22 l-20 26 25 -20 c13 -11 25 -21 27 -21z
m-1213 -14 c3 -5 -1 -10 -10 -10 -9 0 -13 5 -10 10 3 6 8 10 10 10 2 0 7 -4
10 -10z m1154 7 c-2 -1 -13 -9 -24 -17 -19 -14 -19 -14 -6 3 7 9 18 17 24 17
6 0 8 -1 6 -3z m-1109 -49 c0 -9 4 -8 10 2 8 13 10 12 10 -2 0 -20 -1 -21 -24
-12 -18 7 -22 24 -6 24 6 0 10 -6 10 -12z m40 -48 c0 -5 -5 -10 -11 -10 -5 0
-7 5 -4 10 3 6 8 10 11 10 2 0 4 -4 4 -10z m920 -10 c0 -5 -5 -10 -11 -10 -5
0 -7 5 -4 10 3 6 8 10 11 10 2 0 4 -4 4 -10z m-761 -27 c-6 -7 -15 -10 -20 -7
-13 8 -3 21 15 21 12 0 13 -4 5 -14z m-36 -8 c4 -8 3 -16 -1 -19 -4 -3 -9 4
-9 15 -2 23 3 25 10 4z m94 -20 c-4 -8 -2 -17 3 -20 6 -4 10 0 10 9 0 14 23
16 36 3 4 -4 14 -1 22 6 11 9 11 5 -2 -15 -10 -15 -23 -25 -29 -21 -8 5 -7 8
1 11 7 2 9 8 6 14 -4 5 -13 3 -24 -7 -15 -13 -20 -14 -26 -3 -13 20 -13 38 -2
38 6 0 8 -7 5 -15z m463 5 c0 -5 -5 -10 -11 -10 -5 0 -7 5 -4 10 3 6 8 10 11
10 2 0 4 -4 4 -10z m-317 -30 c3 -11 1 -20 -4 -20 -5 0 -9 9 -9 20 0 11 2 20
4 20 2 0 6 -9 9 -20z"/>
<path d="M1940 222 c0 -7 -6 -12 -14 -12 -8 0 -18 -5 -22 -12 -5 -8 -2 -9 11
-5 9 4 24 2 31 -4 12 -9 14 -8 11 9 -3 24 -17 42 -17 24z"/>
<path d="M947 183 c-4 -3 -7 -11 -7 -17 0 -6 5 -5 12 2 6 6 9 14 7 17 -3 3 -9
2 -12 -2z"/>
<path d="M1696 131 c-4 -5 1 -8 9 -7 21 3 31 16 12 16 -9 0 -18 -4 -21 -9z"/>
</g>
</svg>
